<svg width="14" height="14" viewBox="0 0 14 14" fill="none" xmlns="http://www.w3.org/2000/svg">
<path d="M9.555 6.895L13.475 2.975C13.895 2.555 13.895 1.715 13.475 1.155L12.635 0.315C12.215 -0.105 11.375 -0.105 10.815 0.315L6.895 4.235L2.975 0.315C2.555 -0.105 1.715 -0.105 1.155 0.315L0.315 1.155C-0.105 1.575 -0.105 2.415 0.315 2.975L4.235 6.895L0.315 10.815C-0.105 11.235 -0.105 12.075 0.315 12.635L1.155 13.475C1.575 13.895 2.415 13.895 2.975 13.475L6.895 9.555L10.815 13.475C11.235 13.895 12.075 13.895 12.635 13.475L13.475 12.635C13.895 12.215 13.895 11.375 13.475 10.815L9.555 6.895Z" fill="#808080"/>
</svg>
